<svg width="12" height="12" viewBox="0 0 12 12" fill="none" xmlns="http://www.w3.org/2000/svg">
<circle cx="6" cy="6" r="5.75" stroke="white" stroke-width="0.5"/>
<path d="M6.392 9.048C5.83733 9.048 5.336 8.92533 4.888 8.68C4.44533 8.43467 4.096 8.096 3.84 7.664C3.58933 7.22667 3.464 6.73867 3.464 6.2C3.464 5.66133 3.58933 5.176 3.84 4.744C4.096 4.30667 4.448 3.96533 4.896 3.72C5.344 3.47467 5.84533 3.352 6.4 3.352C6.816 3.352 7.2 3.42133 7.552 3.56C7.904 3.69867 8.20267 3.90133 8.448 4.168L8.072 4.544C7.63467 4.10133 7.08267 3.88 6.416 3.88C5.97333 3.88 5.57067 3.98133 5.208 4.184C4.84533 4.38667 4.56 4.664 4.352 5.016C4.14933 5.368 4.048 5.76267 4.048 6.2C4.048 6.63733 4.14933 7.032 4.352 7.384C4.56 7.736 4.84533 8.01333 5.208 8.216C5.57067 8.41867 5.97333 8.52 6.416 8.52C7.088 8.52 7.64 8.296 8.072 7.848L8.448 8.224C8.20267 8.49067 7.90133 8.696 7.544 8.84C7.192 8.97867 6.808 9.048 6.392 9.048Z" fill="white"/>
</svg>
