<svg width="47" height="48" viewBox="0 0 47 48" fill="none" xmlns="http://www.w3.org/2000/svg">
<path d="M5.80566 23.9142C5.80566 33.9027 13.3924 42 23.2149 42C33.0374 42 41 33.9027 41 23.9142C41 13.9257 33.0374 5.82837 23.2149 5.82837" stroke="url(#paint0_linear_63_14)" stroke-width="11.4286"/>
<ellipse cx="23.4759" cy="25.1742" rx="6.721" ry="6.21616" fill="url(#paint1_linear_63_14)"/>
<rect x="16.7549" y="18.958" width="6.98985" height="5.96751" fill="url(#paint2_linear_63_14)"/>
<rect x="13.9336" y="2" width="8.12791" height="8" fill="#FE9527"/>
<rect x="6.9668" y="8.85693" width="8.12791" height="8" fill="#FE9527"/>
<rect x="2.32227" y="15.7144" width="5.80565" height="4.57143" fill="#FE9527"/>
<rect y="13.4287" width="3.48339" height="3.42857" fill="#FE9527"/>
<rect x="2.32227" y="4.28564" width="5.80565" height="5.71429" fill="#FE9527"/>
<rect y="2" width="3.48339" height="3.42857" fill="#FE9527"/>
<rect x="6.9668" y="2" width="3.48339" height="3.42857" fill="#FE9527"/>
<defs>
<linearGradient id="paint0_linear_63_14" x1="11.8737" y1="9.49795" x2="37.3778" y2="40.0078" gradientUnits="userSpaceOnUse">
<stop stop-color="#FB862D"/>
<stop offset="0.809692" stop-color="#FD6229" stop-opacity="0.974383"/>
<stop offset="1" stop-color="#FE3F25" stop-opacity="0.95"/>
</linearGradient>
<linearGradient id="paint1_linear_63_14" x1="23.4759" y1="18.958" x2="23.4759" y2="31.3903" gradientUnits="userSpaceOnUse">
<stop stop-color="#FE6326"/>
<stop offset="1" stop-color="#FE6326" stop-opacity="0.96"/>
</linearGradient>
<linearGradient id="paint2_linear_63_14" x1="20.2498" y1="18.958" x2="20.2498" y2="24.9255" gradientUnits="userSpaceOnUse">
<stop stop-color="#FE6326"/>
<stop offset="1" stop-color="#FE6326" stop-opacity="0.96"/>
</linearGradient>
</defs>
</svg>
