<svg width="10" height="10" viewBox="0 0 10 10" fill="none" xmlns="http://www.w3.org/2000/svg">
<path d="M5 0.833252C3.3875 0.833252 2.08334 2.13742 2.08334 3.74992C2.08334 5.93742 5 9.16659 5 9.16659C5 9.16659 7.91667 5.93742 7.91667 3.74992C7.91667 2.13742 6.6125 0.833252 5 0.833252ZM2.91667 3.74992C2.91667 2.59992 3.85 1.66659 5 1.66659C6.15 1.66659 7.08334 2.59992 7.08334 3.74992C7.08334 4.94992 5.88334 6.74575 5 7.86659C4.13334 6.75409 2.91667 4.93742 2.91667 3.74992Z" fill="white"/>
<path d="M5 4.79158C5.5753 4.79158 6.04167 4.32521 6.04167 3.74992C6.04167 3.17462 5.5753 2.70825 5 2.70825C4.42471 2.70825 3.95834 3.17462 3.95834 3.74992C3.95834 4.32521 4.42471 4.79158 5 4.79158Z" fill="white"/>
</svg>
