<svg width="22" height="21" viewBox="0 0 22 21" fill="none" xmlns="http://www.w3.org/2000/svg">
<path d="M10.7872 0.422607C5.0125 0.422607 0.325806 4.93502 0.325806 10.495C0.325806 16.0549 5.0125 20.5673 10.7872 20.5673C16.5618 20.5673 21.2485 16.0549 21.2485 10.495C21.2485 4.93502 16.5618 0.422607 10.7872 0.422607ZM5.62972 16.8204C6.07956 15.9139 8.82043 15.0275 10.7872 15.0275C12.7539 15.0275 15.5052 15.9139 15.9446 16.8204C14.5219 17.9082 12.733 18.5529 10.7872 18.5529C8.84136 18.5529 7.05246 17.9082 5.62972 16.8204ZM17.4406 15.3599C15.9446 13.6073 12.3145 13.0131 10.7872 13.0131C9.25981 13.0131 5.62972 13.6073 4.13374 15.3599C3.06668 14.0102 2.41808 12.3281 2.41808 10.495C2.41808 6.05306 6.17371 2.43708 10.7872 2.43708C15.4006 2.43708 19.1563 6.05306 19.1563 10.495C19.1563 12.3281 18.5077 14.0102 17.4406 15.3599ZM10.7872 4.45155C8.75767 4.45155 7.12569 6.02284 7.12569 7.97688C7.12569 9.93091 8.75767 11.5022 10.7872 11.5022C12.8167 11.5022 14.4486 9.93091 14.4486 7.97688C14.4486 6.02284 12.8167 4.45155 10.7872 4.45155ZM10.7872 9.48773C9.91888 9.48773 9.21797 8.81288 9.21797 7.97688C9.21797 7.14087 9.91888 6.46602 10.7872 6.46602C11.6555 6.46602 12.3564 7.14087 12.3564 7.97688C12.3564 8.81288 11.6555 9.48773 10.7872 9.48773Z" fill="#323030"/>
</svg>
