<svg width="20" height="21" viewBox="0 0 20 21" fill="none" xmlns="http://www.w3.org/2000/svg">
<path d="M19.1004 18.8489L14.3191 13.8413C15.5484 12.3697 16.222 10.518 16.222 8.59044C16.222 4.08677 12.5833 0.422607 8.11094 0.422607C3.63857 0.422607 -0.00012207 4.08677 -0.00012207 8.59044C-0.00012207 13.0941 3.63857 16.7583 8.11094 16.7583C9.78993 16.7583 11.3899 16.2483 12.7579 15.2802L17.5755 20.3258C17.7769 20.5364 18.0477 20.6525 18.3379 20.6525C18.6126 20.6525 18.8733 20.5471 19.0711 20.3553C19.4915 19.948 19.5049 19.2725 19.1004 18.8489ZM8.11094 2.55335C11.4167 2.55335 14.1061 5.26151 14.1061 8.59044C14.1061 11.9194 11.4167 14.6275 8.11094 14.6275C4.80515 14.6275 2.11581 11.9194 2.11581 8.59044C2.11581 5.26151 4.80515 2.55335 8.11094 2.55335Z" fill="#323030"/>
</svg>
