<svg width="22" height="21" viewBox="0 0 22 21" fill="none" xmlns="http://www.w3.org/2000/svg">
<path d="M15.6164 11.5022C16.401 11.5022 17.0915 11.0892 17.4472 10.4647L21.1924 3.92779C21.5794 3.26301 21.0773 2.43708 20.2822 2.43708H4.79929L3.81591 0.422607H0.39502V2.43708H2.48731L6.25343 10.082L4.84113 12.5397C4.07745 13.8893 5.08175 15.5311 6.67189 15.5311H19.2256V13.5167H6.67189L7.82265 11.5022H15.6164ZM5.79313 4.45155H18.5038L15.6164 9.48773H8.27249L5.79313 4.45155ZM6.67189 16.5384C5.52113 16.5384 4.59006 17.4449 4.59006 18.5529C4.59006 19.6608 5.52113 20.5673 6.67189 20.5673C7.82265 20.5673 8.76418 19.6608 8.76418 18.5529C8.76418 17.4449 7.82265 16.5384 6.67189 16.5384ZM17.1333 16.5384C15.9826 16.5384 15.0515 17.4449 15.0515 18.5529C15.0515 19.6608 15.9826 20.5673 17.1333 20.5673C18.2841 20.5673 19.2256 19.6608 19.2256 18.5529C19.2256 17.4449 18.2841 16.5384 17.1333 16.5384Z" fill="#323030"/>
</svg>
