<svg width="27" height="23" viewBox="0 0 27 23" fill="none" xmlns="http://www.w3.org/2000/svg">
<path fill-rule="evenodd" clip-rule="evenodd" d="M5.58733 1.57585C3.14548 2.34207 1.1649 4.49334 0.94365 7.61761C0.859214 8.80992 1.33564 10.1381 2.21731 11.5333C3.09558 12.9231 4.34941 14.3377 5.75057 15.6893C8.55272 18.3926 11.8893 20.7928 13.8366 22.1859C14.0419 22.3329 14.0819 22.6086 13.9258 22.802C13.7698 22.9953 13.4768 23.0329 13.2714 22.886C11.3269 21.4948 7.93851 19.059 5.08208 16.3035C3.65391 14.9257 2.34502 13.4552 1.41459 11.9828C0.487564 10.5158 -0.0906759 9.00465 0.011693 7.55916C0.25745 4.08892 2.47998 1.62406 5.29196 0.741699C8.10842 -0.142049 11.4595 0.578994 13.9128 3.35034C14.0779 3.53682 14.0511 3.81406 13.853 3.96948C13.6548 4.12495 13.3603 4.09977 13.1952 3.91323C10.9783 1.40893 8.02477 0.811023 5.58733 1.57585Z" fill="#323030"/>
<path fill-rule="evenodd" clip-rule="evenodd" d="M21.4127 1.57585C23.8545 2.34207 25.8352 4.49334 26.0564 7.61761C26.1408 8.80992 25.6644 10.1381 24.7827 11.5333C23.9045 12.9231 22.6506 14.3377 21.2495 15.6893C18.4473 18.3926 15.1108 20.7928 13.1635 22.1859C12.9581 22.3329 12.9182 22.6086 13.0742 22.802C13.2303 22.9953 13.5233 23.0329 13.7286 22.886C15.6731 21.4948 19.0615 19.059 21.9179 16.3035C23.3461 14.9257 24.655 13.4552 25.5854 11.9828C26.5125 10.5158 27.0907 9.00465 26.9883 7.55916C26.7426 4.08892 24.52 1.62406 21.7081 0.741699C18.8916 -0.142049 15.5405 0.578994 13.0873 3.35034C12.9222 3.53682 12.9489 3.81406 13.1471 3.96948C13.3452 4.12495 13.6397 4.09977 13.8048 3.91323C16.0217 1.40893 18.9753 0.811023 21.4127 1.57585Z" fill="#323030"/>
</svg>
