<svg width="26" height="16" viewBox="0 0 26 16" fill="none" xmlns="http://www.w3.org/2000/svg">
<path d="M8.12525 11.3667C6.86342 11.3667 5.84082 12.3889 5.84082 13.6509C5.84082 14.9129 6.86342 15.9351 8.12525 15.9351C9.38754 15.9351 10.4099 14.9129 10.4099 13.6509C10.4099 12.3889 9.38754 11.3667 8.12525 11.3667ZM8.12525 14.6439C7.57672 14.6439 7.13225 14.1994 7.13225 13.6509C7.13225 13.1021 7.57672 12.6578 8.12525 12.6578C8.67385 12.6578 9.11864 13.1021 9.11864 13.6509C9.11864 14.1994 8.67385 14.6439 8.12525 14.6439Z" fill="black"/>
<path d="M20.1716 11.3667C18.9097 11.3667 17.8872 12.3889 17.8872 13.6509C17.8872 14.9129 18.9097 15.9351 20.1716 15.9351C21.4339 15.9351 22.4562 14.9129 22.4562 13.6509C22.4562 12.3889 21.4339 11.3667 20.1716 11.3667ZM20.1716 14.6439C19.623 14.6439 19.1786 14.1994 19.1786 13.6509C19.1786 13.1021 19.623 12.6578 20.1716 12.6578C20.7202 12.6578 21.165 13.1021 21.165 13.6509C21.165 14.1994 20.7202 14.6439 20.1716 14.6439Z" fill="black"/>
<path d="M10.6951 4.34757C10.6951 4.66767 10.4332 4.92953 10.1131 4.92953H2.08238C1.76229 4.92953 1.50049 4.66767 1.50049 4.34757V3.9984C1.50049 3.67837 1.76235 3.4165 2.08238 3.4165H10.1131C10.4332 3.4165 10.6951 3.67837 10.6951 3.9984V4.34757V4.34757Z" fill="black"/>
<path d="M24.6475 7.75496C23.8099 7.5372 23.3306 7.40029 23.0017 6.76509L21.9019 4.53831C21.5728 3.90311 20.7183 3.38335 20.0031 3.38335H18.4988C18.4988 3.38335 18.2965 3.38756 18.2965 3.18393C18.2965 2.71702 18.2965 1.31636 18.2965 1.31636C18.2965 0.592376 17.8868 0 17.0153 0H4.75561C3.5079 0 2.91553 0.59244 2.91553 1.31636V2.48673C2.91553 2.48673 2.91553 2.83482 3.25243 2.83482C4.96756 2.83482 10.113 2.83482 10.113 2.83482C10.7548 2.83482 11.2769 3.35688 11.2769 3.99867V4.34784C11.2769 4.98963 10.7548 5.51169 10.113 5.51169H3.25243C3.25243 5.51169 2.91553 5.4837 2.91553 5.84738C2.91553 6.02801 2.91553 6.14926 2.91553 6.24986C2.91553 6.56996 3.35425 6.56976 3.35425 6.56976H7.97246C8.61424 6.56976 9.13637 7.0919 9.13637 7.73362V8.08279C9.13637 8.72457 8.61424 9.24664 7.97246 9.24664H3.42711C3.42711 9.24664 2.91553 9.23718 2.91553 9.64452C2.91553 10.3516 2.91553 12.4726 2.91553 12.4726C2.91553 13.1965 3.5079 13.7889 4.23188 13.7889C4.23188 13.7889 4.77722 13.7889 4.959 13.7889C5.1239 13.7889 5.14819 13.6971 5.14819 13.6509C5.14819 12.0096 6.48365 10.6745 8.12503 10.6745C9.76652 10.6745 11.1019 12.0097 11.1019 13.6509C11.1019 13.6973 11.0888 13.7889 11.2149 13.7889C12.6562 13.7889 17.0828 13.7889 17.0828 13.7889C17.1991 13.7889 17.1944 13.6909 17.1944 13.6509C17.1944 12.0096 18.5298 10.6745 20.1712 10.6745C21.8126 10.6745 23.148 12.0097 23.148 13.6509C23.148 13.6973 23.1469 13.7889 23.2197 13.7889C23.8806 13.7889 24.6991 13.7889 24.6991 13.7889C25.4146 13.7889 25.9999 13.2036 25.9999 12.4882V10.0169C26 7.93572 25.3429 7.93572 24.6475 7.75496ZM22.1722 7.63921C22.1722 7.63921 19.4098 7.63921 18.4697 7.63921C18.3167 7.63921 18.2964 7.49029 18.2964 7.49029V4.40601C18.2964 4.40601 18.2878 4.28757 18.4842 4.28757C18.7484 4.28757 19.5407 4.28757 19.5407 4.28757C20.1772 4.28757 20.9376 4.75007 21.2302 5.31528L22.2089 7.29668C22.2501 7.37645 22.2942 7.44727 22.3414 7.51074C22.3761 7.55727 22.3178 7.63921 22.1722 7.63921Z" fill="black"/>
<path d="M8.55443 8.08292C8.55443 8.40302 8.29256 8.66488 7.97254 8.66488H0.581894C0.261801 8.66488 0 8.40302 0 8.08292V7.73375C0 7.41372 0.261865 7.15186 0.581894 7.15186H7.97254C8.29263 7.15186 8.55443 7.41372 8.55443 7.73375V8.08292Z" fill="black"/>
</svg>
