<svg width="24" height="14" viewBox="0 0 24 14" fill="none" xmlns="http://www.w3.org/2000/svg">
<path d="M22.6476 7.75496C21.81 7.5372 21.3307 7.40029 21.0018 6.76509L19.902 4.53831C19.5729 3.90311 18.7184 3.38335 18.0032 3.38335H16.499C16.499 3.38335 16.2966 3.38756 16.2966 3.18393C16.2966 2.71702 16.2966 1.31636 16.2966 1.31636C16.2966 0.592376 15.8869 0 15.0154 0H2.75574C1.50803 0 0.915649 0.59244 0.915649 1.31636V2.48673C0.915649 2.48673 0.915649 2.83482 1.25255 2.83482C2.96768 2.83482 8.11314 2.83482 8.11314 2.83482C8.75492 2.83482 9.27705 3.35688 9.27705 3.99867V4.34784C9.27705 4.98963 8.75492 5.51169 8.11314 5.51169H1.25255C1.25255 5.51169 0.915649 5.4837 0.915649 5.84738C0.915649 6.02801 0.915649 6.14926 0.915649 6.24986C0.915649 6.56996 1.35437 6.56976 1.35437 6.56976H5.97258C6.61436 6.56976 7.13649 7.0919 7.13649 7.73362V8.08279C7.13649 8.72458 6.61436 9.24664 5.97258 9.24664H1.42724C1.42724 9.24664 0.915649 9.23718 0.915649 9.64452C0.915649 10.3516 0.915649 12.4726 0.915649 12.4726C0.915649 13.1965 1.50803 13.7889 2.23201 13.7889C2.23201 13.7889 2.77734 13.7889 2.95912 13.7889C3.12402 13.7889 3.14831 13.6971 3.14831 13.6509C3.14831 12.0096 4.48378 10.6745 6.12515 10.6745C7.76665 10.6745 9.10205 12.0097 9.10205 13.6509C9.10205 13.6973 9.08888 13.7889 9.21499 13.7889C10.6563 13.7889 15.0829 13.7889 15.0829 13.7889C15.1992 13.7889 15.1945 13.6909 15.1945 13.6509C15.1945 12.0096 16.5299 10.6745 18.1713 10.6745C19.8128 10.6745 21.1482 12.0097 21.1482 13.6509C21.1482 13.6973 21.147 13.7889 21.2198 13.7889C21.8807 13.7889 22.6992 13.7889 22.6992 13.7889C23.4148 13.7889 24 13.2036 24 12.4882V10.0169C24.0001 7.93572 23.343 7.93572 22.6476 7.75496ZM20.1724 7.63921C20.1724 7.63921 17.41 7.63921 16.4698 7.63921C16.3169 7.63921 16.2965 7.49029 16.2965 7.49029V4.40601C16.2965 4.40601 16.2879 4.28757 16.4843 4.28757C16.7485 4.28757 17.5408 4.28757 17.5408 4.28757C18.1773 4.28757 18.9377 4.75007 19.2304 5.31528L20.209 7.29668C20.2503 7.37645 20.2943 7.44727 20.3415 7.51074C20.3762 7.55727 20.318 7.63921 20.1724 7.63921Z" fill="#323030"/>
</svg>
